<?xml version="1.0" standalone="no"?>
<!DOCTYPE svg PUBLIC "-//W3C//DTD SVG 20010904//EN"
 "http://www.w3.org/TR/2001/REC-SVG-20010904/DTD/svg10.dtd">
<svg version="1.0" xmlns="http://www.w3.org/2000/svg"
 width="242.000000pt" height="242.000000pt" viewBox="0 0 242.000000 242.000000"
 preserveAspectRatio="xMidYMid meet">
<metadata>
Created by potrace 1.14, written by Peter Selinger 2001-2017
</metadata>
<g transform="translate(0.000000,242.000000) scale(0.100000,-0.100000)"
fill="#000000" stroke="none">
<path d="M637 2287 c-41 -72 -84 -148 -95 -167 -11 -19 -52 -91 -92 -160 -40
-69 -86 -150 -103 -180 -17 -30 -48 -84 -69 -119 -21 -34 -38 -65 -38 -66 0
-2 -16 -31 -36 -65 l-35 -60 4 -440 c3 -279 9 -445 15 -453 6 -7 28 -21 49
-32 21 -11 40 -22 43 -25 3 -3 21 -14 40 -25 19 -11 217 -126 439 -257 l405
-237 50 29 51 29 1 423 1 423 96 168 c53 93 97 173 97 178 0 5 3 9 8 9 4 0 12
10 18 23 16 35 85 158 111 199 13 21 23 39 23 41 0 18 88 153 98 149 6 -2 108
-59 224 -127 l213 -123 3 -421 2 -420 48 28 47 27 3 441 2 441 -29 21 c-16 12
-32 21 -35 21 -3 0 -29 14 -58 31 -160 96 -272 159 -279 159 -5 0 -9 5 -9 10
0 6 -4 10 -9 10 -5 0 -114 61 -242 136 -395 230 -796 463 -843 489 l-44 25
-75 -133z"/>
<path d="M1708 888 l-118 -70 0 -285 0 -285 38 23 c20 12 53 32 72 44 19 12
56 34 83 49 l47 27 0 284 c0 157 -1 285 -2 284 -2 0 -56 -32 -120 -71z"/>
</g>
</svg>
